<svg width="960" height="960" viewBox="0 0 960 960" fill="none" xmlns="http://www.w3.org/2000/svg">
<path d="M480 0C745.097 0 960 214.903 960 480C960 745.097 745.097 960 480 960C214.903 960 0 745.097 0 480C0 214.903 214.903 0 480 0Z" fill="#1B1B1B"/>
<path d="M480 47.5C718.863 47.5 912.5 241.137 912.5 480C912.5 718.863 718.863 912.5 480 912.5C241.137 912.5 47.5 718.863 47.5 480C47.5 241.137 241.137 47.5 480 47.5Z" fill="url(#paint0_linear_1_11)"/>
<path d="M99.2305 480C99.2305 570.792 139.343 757.126 299.804 757.126C398.972 757.126 473.232 670.533 473.232 583.678C473.232 560.089 468.406 536.243 458.352 513.648C314.279 500.904 237.699 368.839 237.699 272.301C237.699 235.15 246.056 199.946 261.004 168.482C163.142 237.395 99.2305 351.233 99.2305 480ZM319.587 825.438C377.722 852.508 431.884 860.77 480 860.77C691.986 860.77 833.312 694.589 833.312 583.799C833.312 496.517 765.104 410.722 660.697 410.722C602.287 410.722 551.648 438.315 519.955 481.913C535.175 514.629 542.471 549.318 542.471 583.629C542.471 701.193 453.173 814.788 319.587 825.438ZM306.938 272.308C306.938 361.807 374.87 435.439 461.99 444.458C508.158 378.176 583.156 341.491 660.095 341.491C739.771 341.491 814.031 380.515 859.303 446.108C842.13 251.681 678.876 99.2299 480.014 99.2299C386.641 99.2299 306.938 172.68 306.938 272.308Z" fill="#1B1B1B"/>
<path d="M465.012 220.447C485.999 220.447 503.012 237.46 503.012 258.447C503.012 279.434 485.999 296.447 465.012 296.447C444.025 296.447 427.012 279.434 427.012 258.447C427.012 237.46 444.025 220.447 465.012 220.447Z" fill="url(#paint1_linear_1_11)"/>
<path d="M678.893 539.393C699.88 539.393 716.893 556.406 716.893 577.393C716.893 598.38 699.88 615.393 678.893 615.393C657.907 615.393 640.893 598.38 640.893 577.393C640.893 556.406 657.907 539.393 678.893 539.393Z" fill="url(#paint2_linear_1_11)"/>
<path d="M295.874 565.466C316.86 565.466 333.874 582.48 333.874 603.466C333.874 624.453 316.86 641.466 295.874 641.466C274.887 641.466 257.874 624.453 257.874 603.466C257.874 582.48 274.887 565.466 295.874 565.466Z" fill="url(#paint3_linear_1_11)"/>
<defs>
<linearGradient id="paint0_linear_1_11" x1="480" y1="0" x2="480" y2="960" gradientUnits="userSpaceOnUse">
<stop stop-color="#A05A4F"/>
<stop offset="1" stop-color="#7D453E"/>
</linearGradient>
<linearGradient id="paint1_linear_1_11" x1="480" y1="0" x2="480" y2="960" gradientUnits="userSpaceOnUse">
<stop stop-color="#A05A4F"/>
<stop offset="1" stop-color="#7D453E"/>
</linearGradient>
<linearGradient id="paint2_linear_1_11" x1="480" y1="0" x2="480" y2="960" gradientUnits="userSpaceOnUse">
<stop stop-color="#A05A4F"/>
<stop offset="1" stop-color="#7D453E"/>
</linearGradient>
<linearGradient id="paint3_linear_1_11" x1="480" y1="0" x2="480" y2="960" gradientUnits="userSpaceOnUse">
<stop stop-color="#A05A4F"/>
<stop offset="1" stop-color="#7D453E"/>
</linearGradient>
</defs>
</svg>
