<svg width="664" height="495" viewBox="0 0 664 495" fill="none" xmlns="http://www.w3.org/2000/svg">
<path d="M336 0.634944C326 1.70161 309.733 5.43495 303.333 8.10161C288.933 14.235 284.267 17.9683 277.867 29.0349C270.667 41.5683 267.867 43.7016 258.133 43.7016C249.467 43.7016 243.733 47.5683 239.867 56.3683C234.8 67.5683 238 76.9016 248.533 81.835C256.933 85.835 262.267 85.835 270.8 82.1016C279.067 78.635 285.733 70.3683 288 61.1683C289.333 55.3016 289.2 53.835 286.8 48.3683C283.333 40.5016 283.333 38.7683 286.533 37.0349C290.8 34.9016 291.467 35.3016 293.2 42.3683C294.4 47.035 296.4 50.235 300 53.5683C306.4 59.3016 312.267 61.0349 326 61.0349C331.867 61.0349 340.933 61.7016 346 62.3683C355.2 63.7016 369.333 69.435 369.333 71.835C369.333 72.5016 365.2 81.5683 360.133 91.9683C344.533 124.368 341.733 142.768 350.133 158.502C354.8 167.168 364.667 174.368 381.467 181.035C399.333 188.235 407.867 194.502 408 200.902C408 205.035 402.667 236.902 401.2 240.635C400.133 243.568 399.6 243.702 379.6 243.702H359.067L354 236.368C345.467 223.968 334.4 219.435 330.533 226.635L329.067 229.302L327.2 226.502C324.8 223.168 320.133 222.902 314.8 225.568C310.533 227.835 303.2 235.835 301.067 240.502C299.6 243.702 299.333 243.702 278.533 243.702H257.333L255.2 238.635C251.867 230.635 244.4 200.768 242.667 188.102C241.067 176.635 241.2 175.968 245.067 162.368C253.2 134.235 254.8 126.368 253.867 119.968C252.8 112.102 248.533 104.635 240.933 97.1683L234.933 91.435L232.667 95.5683C230.133 100.635 221.6 110.368 219.733 110.368C219.067 110.368 218.8 108.635 219.333 106.368C220.533 100.902 218.933 101.302 212.4 107.968C202 118.635 200.933 122.768 200 157.702C199.067 193.168 199.2 192.635 186 206.368C176.133 216.768 170.267 225.568 166.4 235.968L163.6 243.702H151.2C138.667 243.702 138.667 243.702 138.667 240.368V237.035H0V254.368L69.0667 254.102L138 253.702L138.8 246.235L151.067 246.635C162.4 247.035 163.333 247.168 163.067 249.702C162.133 257.035 165.867 275.702 170.933 288.902C181.2 315.968 181.467 328.102 172.267 338.635C169.333 342.102 165.733 341.568 155.067 336.102C145.733 331.302 145.467 331.168 139.733 333.168C131.733 335.835 122 345.435 119.867 353.035C117.467 361.702 118.133 374.368 121.867 391.835C128.8 424.635 128 434.635 117.067 445.168C113.6 448.635 110.667 451.835 110.667 452.102C110.667 452.902 123.333 458.368 130.667 460.768C148.533 466.368 158.267 467.968 182 468.635C203.067 469.168 207.6 468.902 218.533 466.502C253.867 458.768 270.8 439.702 266.533 413.168C265.067 403.702 266.4 399.302 274.133 388.902C280.933 379.568 282.133 374.502 278.933 367.302C277.467 364.102 274.8 359.968 272.8 357.968C268.533 353.702 268.267 348.102 272.133 339.702C278.8 325.035 288.667 320.235 320.667 316.368C330.267 315.302 341.333 313.702 345.333 312.902C359.733 310.102 376 302.235 385.467 293.435L389.067 290.235L390.533 294.635C395.467 308.768 392.933 324.768 380.8 355.435C371.2 379.702 369.333 386.635 369.333 396.768C369.333 404.635 369.733 405.568 373.467 409.168C377.467 412.902 379.6 413.568 392.533 415.035C403.867 416.368 404.667 417.435 410.133 436.368C418.133 464.502 429.733 478.368 445.467 478.368C448.267 478.368 456.667 476.902 464.267 475.035C471.867 473.168 479.2 471.702 480.667 471.702C482 471.702 490.8 475.302 500 479.568C522.133 490.102 537.333 494.502 552 494.768C569.333 494.902 578.933 489.568 585.467 475.968C592.4 461.835 589.467 431.302 579.6 414.635C577.067 410.368 576.667 408.102 577.067 398.102C577.733 384.635 575.067 374.102 569.867 367.835C568 365.568 562.533 361.835 557.733 359.435C549.333 355.302 548.133 355.168 533.467 355.035C524.933 355.035 514.533 355.435 510.267 356.102L502.533 357.035L507.867 347.435C522.8 320.235 532.267 289.568 536.667 254.635L537.6 247.702H588.8C633.467 247.702 640 247.968 640 249.702C640 251.302 642.267 251.702 652 251.702H664V239.702H652C642.267 239.702 640 240.102 640 241.702C640 243.435 633.467 243.702 588.8 243.702H537.733L536.933 231.302C534.667 194.102 520.8 169.168 494.8 155.035C482.667 148.502 479.467 144.235 480.667 135.702C483.067 118.235 483.067 113.968 480.667 109.568C478.133 104.768 470.8 99.1683 460.4 93.9683C451.467 89.435 448.4 84.7683 445.867 72.1016C439.867 41.5683 437.6 35.9683 427.2 25.5683C410.267 8.23495 369.467 -2.83173 336 0.634944ZM328 236.102C329.867 236.235 332.533 235.835 334.133 235.302C336 234.635 338.267 235.302 341.333 237.302C349.733 243.035 348.4 243.702 328.8 243.702C318.533 243.702 310.667 243.168 310.667 242.502C310.667 239.835 319.333 234.368 322 235.168C323.467 235.702 326.133 236.102 328 236.102ZM298 250.368C299.467 254.768 310.267 263.302 316.933 265.168C334.8 270.102 353.067 263.968 359.867 250.635C361.333 247.835 362.133 247.702 380 247.702C401.067 247.702 400.133 247.035 396.133 258.502C385.6 289.168 365.333 303.568 332.533 303.702C305.733 303.702 286.533 293.302 271.6 270.635C265.2 261.035 258.533 248.368 259.333 247.568C259.6 247.302 268.133 247.168 278.533 247.435C295.6 247.835 297.333 248.102 298 250.368ZM353.067 248.235C353.467 248.768 353.467 249.302 353.2 249.568C352.133 250.635 336.533 252.235 328.667 252.102C312.933 251.835 301.067 249.435 306.667 247.435C308.933 246.768 352.267 247.568 353.067 248.235Z" fill="url(#paint0_linear_1_28)"/>
<path d="M336 0.634944C326 1.70161 309.733 5.43495 303.333 8.10161C288.933 14.235 284.267 17.9683 277.867 29.0349C270.667 41.5683 267.867 43.7016 258.133 43.7016C249.467 43.7016 243.733 47.5683 239.867 56.3683C234.8 67.5683 238 76.9016 248.533 81.835C256.933 85.835 262.267 85.835 270.8 82.1016C279.067 78.635 285.733 70.3683 288 61.1683C289.333 55.3016 289.2 53.835 286.8 48.3683C283.333 40.5016 283.333 38.7683 286.533 37.0349C290.8 34.9016 291.467 35.3016 293.2 42.3683C294.4 47.035 296.4 50.235 300 53.5683C306.4 59.3016 312.267 61.0349 326 61.0349C331.867 61.0349 340.933 61.7016 346 62.3683C355.2 63.7016 369.333 69.435 369.333 71.835C369.333 72.5016 365.2 81.5683 360.133 91.9683C344.533 124.368 341.733 142.768 350.133 158.502C354.8 167.168 364.667 174.368 381.467 181.035C399.333 188.235 407.867 194.502 408 200.902C408 205.035 402.667 236.902 401.2 240.635C400.133 243.568 399.6 243.702 379.6 243.702H359.067L352 242.5L341 243.702H323L310 242.5C310 242.5 310.5 242 298.5 243C294.5 243.702 299.333 243.702 278.533 243.702H257.333L255.2 238.635C251.867 230.635 244.4 200.768 242.667 188.102C241.067 176.635 241.2 175.968 245.067 162.368C253.2 134.235 254.8 126.368 253.867 119.968C252.8 112.102 248.533 104.635 240.933 97.1683L234.933 91.435L232.667 95.5683C230.133 100.635 221.6 110.368 219.733 110.368C219.067 110.368 218.8 108.635 219.333 106.368C220.533 100.902 218.933 101.302 212.4 107.968C202 118.635 200.933 122.768 200 157.702C199.067 193.168 199.2 192.635 186 206.368C176.133 216.768 170.267 225.568 166.4 235.968L163.6 243.702H151.2C138.667 243.702 138.667 243.702 138.667 240.368V237.035H0V254.368L69.0667 254.102L138 253.702L138.8 246.235L151.067 246.635C162.4 247.035 163.333 247.168 163.067 249.702C162.133 257.035 165.867 275.702 170.933 288.902C181.2 315.968 181.467 328.102 172.267 338.635C169.333 342.102 165.733 341.568 155.067 336.102C145.733 331.302 145.467 331.168 139.733 333.168C131.733 335.835 122 345.435 119.867 353.035C117.467 361.702 118.133 374.368 121.867 391.835C128.8 424.635 128 434.635 117.067 445.168C113.6 448.635 110.667 451.835 110.667 452.102C110.667 452.902 123.333 458.368 130.667 460.768C148.533 466.368 158.267 467.968 182 468.635C203.067 469.168 207.6 468.902 218.533 466.502C253.867 458.768 270.8 439.702 266.533 413.168C265.067 403.702 266.4 399.302 274.133 388.902C280.933 379.568 282.133 374.502 278.933 367.302C277.467 364.102 274.8 359.968 272.8 357.968C268.533 353.702 268.267 348.102 272.133 339.702C278.8 325.035 288.667 320.235 320.667 316.368C330.267 315.302 341.333 313.702 345.333 312.902C359.733 310.102 376 302.235 385.467 293.435L389.067 290.235L390.533 294.635C395.467 308.768 392.933 324.768 380.8 355.435C371.2 379.702 369.333 386.635 369.333 396.768C369.333 404.635 369.733 405.568 373.467 409.168C377.467 412.902 379.6 413.568 392.533 415.035C403.867 416.368 404.667 417.435 410.133 436.368C418.133 464.502 429.733 478.368 445.467 478.368C448.267 478.368 456.667 476.902 464.267 475.035C471.867 473.168 479.2 471.702 480.667 471.702C482 471.702 490.8 475.302 500 479.568C522.133 490.102 537.333 494.502 552 494.768C569.333 494.902 578.933 489.568 585.467 475.968C592.4 461.835 589.467 431.302 579.6 414.635C577.067 410.368 576.667 408.102 577.067 398.102C577.733 384.635 575.067 374.102 569.867 367.835C568 365.568 562.533 361.835 557.733 359.435C549.333 355.302 548.133 355.168 533.467 355.035C524.933 355.035 514.533 355.435 510.267 356.102L502.533 357.035L507.867 347.435C522.8 320.235 532.267 289.568 536.667 254.635L537.6 247.702H588.8C633.467 247.702 640 247.968 640 249.702C640 251.302 642.267 251.702 652 251.702H664V239.702H652C642.267 239.702 640 240.102 640 241.702C640 243.435 633.467 243.702 588.8 243.702H537.733L536.933 231.302C534.667 194.102 520.8 169.168 494.8 155.035C482.667 148.502 479.467 144.235 480.667 135.702C483.067 118.235 483.067 113.968 480.667 109.568C478.133 104.768 470.8 99.1683 460.4 93.9683C451.467 89.435 448.4 84.7683 445.867 72.1016C439.867 41.5683 437.6 35.9683 427.2 25.5683C410.267 8.23495 369.467 -2.83173 336 0.634944ZM297 249C303 246.5 323.494 247.066 328 247.435C341 248.5 358.5 247.435 362 248.5C364.904 249.384 362.133 247.702 380 247.702C401.067 247.702 400.133 247.035 396.133 258.502C385.6 289.168 365.333 303.568 332.533 303.702C305.733 303.702 286.533 293.302 271.6 270.635C265.2 261.035 258.533 248.368 259.333 247.568C259.6 247.302 268.133 247.168 278.533 247.435C295.6 247.835 295.5 248.5 297 249Z" fill="url(#paint1_linear_1_28)"/>
<defs>
<linearGradient id="paint0_linear_1_28" x1="-76" y1="641.035" x2="737.6" y2="-174.965" gradientUnits="userSpaceOnUse">
<stop stop-color="#FF0000"/>
<stop offset="1" stop-color="#FF0000"/>
</linearGradient>
<linearGradient id="paint1_linear_1_28" x1="-76" y1="641.035" x2="737.6" y2="-174.965" gradientUnits="userSpaceOnUse">
<stop stop-color="#FFD700"/>
<stop offset="0.9999" stop-color="#9F7928"/>
<stop offset="1" stop-color="#9F7928"/>
</linearGradient>
</defs>
</svg>
