<svg width="321" height="523" viewBox="0 0 321 523" fill="none" xmlns="http://www.w3.org/2000/svg">
<path d="M58.0169 509.626C55.1908 485.703 55.0428 481.367 56.4027 462.339C58.709 430.067 66.7643 408.922 85.716 385.392C97.7525 370.447 106.654 357.852 106.654 355.766C106.654 354.907 104.81 353.115 102.557 351.784L98.4594 349.364L93.564 354.404C89.301 358.794 88.1001 359.32 84.2697 358.479C80.7145 357.698 79.159 358.176 76.159 360.969C70.9748 365.797 56.3874 375.481 51.5009 377.339C45.769 379.518 41.2614 378.036 40.15 373.608C39.2406 369.985 40.4284 368.334 46.4275 364.881C47.6036 364.204 47.9846 362.691 47.424 360.925C46.6117 358.365 45.6778 358.138 38.5388 358.764C24.3044 360.012 7.85059 351.915 2.51258 341.036C-0.290308 335.324 -0.463015 333.676 0.610665 322.886C1.29496 316.009 3.82942 304.853 6.63722 296.358C9.90295 286.478 13.3559 270.318 17.2276 246.794C25.7311 195.127 32.2346 172.657 40.3091 167.046C42.3892 165.601 45.1924 163.414 46.5384 162.187C49.6129 159.384 58.44 131.968 61.3286 116.25C64.0917 101.215 81.4555 48.1087 88.7189 32.4787C94.5704 19.8867 98.7412 14.5432 106.654 9.50116C114.748 4.34307 127.792 0.117592 135.974 0.00310178C144.183 -0.111788 157.165 3.58301 159.828 6.79259C160.719 7.86534 162.03 8.74305 162.741 8.74305C166.028 8.74305 180.867 27.0354 184.526 35.5981C185.423 37.698 187.196 47.0487 188.467 56.3776C190.36 70.2867 190.521 76.3836 189.362 90.2568C188.583 99.5733 188.446 110.625 189.056 114.854C189.666 119.077 189.615 126.649 188.943 131.68C187.762 140.52 183.946 152.121 182.646 150.822C182.297 150.473 182.934 147.978 184.063 145.278C186.698 138.969 189.154 123.784 188.017 120.822C187.482 119.429 186.44 121.97 185.346 127.333C182.949 139.086 176.783 151.758 169.448 160.006C162.82 167.46 162.967 167.953 172.706 170.952C175.632 171.852 179.628 174.494 181.587 176.823C184.941 180.808 185.097 181.674 184.242 191.586L183.333 202.115L193.511 212.033C199.109 217.488 207.629 224.656 212.444 227.963C222.068 234.572 223.238 236.916 222.217 247.542C221.438 255.65 215.631 264.97 210.567 266.241C206.381 267.292 206.19 270.794 209.919 278.104C211.426 281.057 213.656 287.86 214.875 293.221L217.092 302.968L234.126 303.744C243.494 304.171 253.516 305.303 256.397 306.259C260.608 307.657 262.289 307.647 264.975 306.21C270.163 303.434 287.78 305.533 288.9 309.061C289.364 310.521 290.255 311.716 290.881 311.716C292.745 311.716 303.551 323.097 302.816 324.287C302.443 324.89 306.181 328.748 311.122 332.861C316.063 336.973 320.143 340.742 320.189 341.236C320.458 344.178 315.4 343.001 309.979 338.862C306.517 336.218 303.066 334.055 302.311 334.055C301.556 334.055 299.005 335.682 296.643 337.67C292.582 341.087 292.347 341.129 292.347 338.451C292.347 333.015 289.269 333.792 282.718 340.88C279.09 344.805 275.218 348.021 274.112 348.026C273.007 348.031 270.291 348.979 268.078 350.133C265.865 351.288 261.781 352.521 259.003 352.874C249.786 354.046 214.938 357.79 209.972 358.142C205.318 358.472 205.041 358.788 204.165 364.772C203.659 368.227 203.593 378.63 204.018 387.889C204.696 402.665 204.43 405.765 201.839 413.25C196.799 427.815 195.569 444.458 196.522 485.193L197.395 522.541H128.469H59.5426L58.0169 509.626ZM54.0897 372.627C63.2408 368.803 70.3156 363.507 69.413 361.155C68.7913 359.535 67.4549 359.138 64.5653 359.716C58.9767 360.834 42.4289 370.576 42.4289 372.748C42.4289 375.103 48.3103 375.042 54.0897 372.627ZM71.7489 321.438C71.7489 320.698 73.9479 320.094 76.6356 320.094C79.3233 320.094 81.5223 319.465 81.5223 318.697C81.5223 317.929 83.0371 317.301 84.8886 317.301C88.128 317.301 89.8277 318.902 98.0847 329.73C104.012 337.502 108.302 334.363 104.759 324.846C92.5676 292.091 92.0936 291.173 88.7845 293.898C86.9249 295.429 86.7694 295.156 87.6001 291.821C88.6457 287.623 87.0526 286.776 84.3147 290.075C83.3587 291.227 81.9688 292.17 81.2261 292.17C80.4833 292.17 78.6963 293.583 77.2549 295.311C75.6286 297.261 74.6166 297.734 74.5878 296.558C74.5602 295.434 73.6683 294.998 72.3942 295.487C71.1663 295.958 69.9028 295.414 69.4429 294.216C69.0007 293.063 67.6108 292.288 66.3544 292.494C64.6966 292.765 63.9493 291.616 63.6304 288.304C63.1719 283.542 60.5794 283.338 60.5794 288.064C60.5794 289.554 59.8812 290.774 59.0279 290.774C58.0175 290.774 57.7889 289.107 58.3726 285.996C58.8924 283.225 58.6645 280.844 57.8299 280.329C57.0384 279.839 56.2852 280.576 56.1561 281.965C56.027 283.354 55.5558 280.721 55.109 276.114C54.6622 271.506 53.6683 267.874 52.9004 268.042C51.207 268.413 45.0852 289.108 40.9809 308.336L37.9772 322.408L42.4047 326.835C44.8802 329.311 48.2876 331.263 50.133 331.263C51.9484 331.263 53.8212 331.89 54.2949 332.656C55.253 334.207 71.7489 323.604 71.7489 321.438ZM255.312 328.54C258.405 322.559 258.094 316.3 254.65 315.207C253.114 314.719 251.858 313.494 251.858 312.483C251.858 309.792 247.213 308.964 231.988 308.943L218.402 308.924L217.552 312.764C217.085 314.875 216.073 318.671 215.304 321.198C212.86 329.232 213.872 329.848 229.824 330.032C241.394 330.165 250.247 331.111 252.869 332.494C253.041 332.585 254.141 330.806 255.312 328.54ZM164.659 160.293C169.819 155.133 168.774 153.1 163.3 157.649C160.668 159.836 158.469 162.097 158.414 162.673C158.208 164.808 161.336 163.616 164.659 160.293ZM157.545 155.186C158.356 154.429 157.993 153.947 156.612 153.947C153.259 153.947 149.936 155.458 149.936 156.983C149.936 158.457 155.433 157.16 157.545 155.186Z" fill="url(#paint0_linear_1_7)"/>
<defs>
<linearGradient id="paint0_linear_1_7" x1="-39.9999" y1="52.5002" x2="240.5" y2="500.5" gradientUnits="userSpaceOnUse">
<stop stop-color="#FFD700"/>
<stop offset="0.9999" stop-color="#9f7928"/>
<stop offset="1" stop-color="#9f7928"/>
</linearGradient>
</defs>
</svg>
